<svg width="40" height="41" viewBox="0 0 40 41" fill="none" xmlns="http://www.w3.org/2000/svg">
<path d="M4.16675 20.4998C4.16675 13.0365 4.16675 9.30317 6.48508 6.98484C8.80341 4.6665 12.5351 4.6665 20.0001 4.6665C27.4634 4.6665 31.1967 4.6665 33.5151 6.98484C35.8334 9.30317 35.8334 13.0348 35.8334 20.4998C35.8334 27.9632 35.8334 31.6965 33.5151 34.0148C31.1967 36.3332 27.4651 36.3332 20.0001 36.3332C12.5367 36.3332 8.80341 36.3332 6.48508 34.0148C4.16675 31.6965 4.16675 27.9648 4.16675 20.4998Z" stroke="white" stroke-width="2.5" stroke-linecap="round" stroke-linejoin="round"/>
<path d="M29.18 11.3335H29.1633M27.5 20.5002C27.5 22.4893 26.7098 24.3969 25.3033 25.8035C23.8968 27.21 21.9891 28.0002 20 28.0002C18.0109 28.0002 16.1032 27.21 14.6967 25.8035C13.2902 24.3969 12.5 22.4893 12.5 20.5002C12.5 18.511 13.2902 16.6034 14.6967 15.1969C16.1032 13.7903 18.0109 13.0002 20 13.0002C21.9891 13.0002 23.8968 13.7903 25.3033 15.1969C26.7098 16.6034 27.5 18.511 27.5 20.5002Z" stroke="white" stroke-width="2.5" stroke-linecap="round" stroke-linejoin="round"/>
</svg>
