<svg width="40" height="41" viewBox="0 0 40 41" fill="none" xmlns="http://www.w3.org/2000/svg">
<path d="M37.5667 11.1998C37.3586 10.4203 36.9497 9.70895 36.3809 9.13667C35.8121 8.56438 35.1033 8.15116 34.3251 7.93817C31.4667 7.1665 20.0001 7.1665 20.0001 7.1665C20.0001 7.1665 8.53341 7.1665 5.67508 7.93817C4.89685 8.15116 4.18802 8.56438 3.61924 9.13667C3.05047 9.70895 2.64161 10.4203 2.43341 11.1998C1.66675 14.0798 1.66675 20.0832 1.66675 20.0832C1.66675 20.0832 1.66675 26.0865 2.43341 28.9665C2.64135 29.7463 3.0501 30.458 3.61889 31.0306C4.18768 31.6032 4.89665 32.0167 5.67508 32.2298C8.53508 32.9998 20.0001 32.9998 20.0001 32.9998C20.0001 32.9998 31.4667 32.9998 34.3251 32.2298C35.1035 32.0167 35.8125 31.6032 36.3813 31.0306C36.9501 30.458 37.3588 29.7463 37.5667 28.9665C38.3334 26.0898 38.3334 20.0832 38.3334 20.0832C38.3334 20.0832 38.3334 14.0798 37.5667 11.1998ZM16.2501 25.5348V14.6332L25.8334 20.0848L16.2501 25.5348Z" stroke="white" stroke-width="2.5" stroke-miterlimit="10" stroke-linejoin="round"/>
</svg>
