<svg width="36" height="37" viewBox="0 0 36 37" fill="none" xmlns="http://www.w3.org/2000/svg">
<path d="M9.88468 33.4149C8.14827 33.2148 6.53095 32.4321 5.29664 31.1945C4.06233 29.9569 3.2839 28.3375 3.08839 26.6006C2.8081 23.9752 2.57153 21.2778 2.57153 18.5315C2.57153 15.7852 2.8081 13.0878 3.08839 10.4623C3.2839 8.7254 4.06233 7.10601 5.29664 5.86843C6.53095 4.63085 8.14827 3.84814 9.88468 3.64804C12.5255 3.36004 15.2358 3.10547 18.0001 3.10547C20.7644 3.10547 23.4772 3.36004 26.1155 3.65318C27.8515 3.85383 29.4682 4.63678 30.702 5.87431C31.9358 7.11184 32.7138 8.73093 32.9092 10.4675C33.1921 13.0903 33.4287 15.7878 33.4287 18.534C33.4287 21.2803 33.1921 23.9778 32.9118 26.6032C32.7163 28.3401 31.9379 29.9595 30.7036 31.1971C29.4693 32.4347 27.8519 33.2174 26.1155 33.4175C24.6476 33.5841 23.1764 33.7212 21.703 33.8289V25.9372H26.6401V19.7658H21.703V17.2972C21.703 15.9343 22.8087 14.8286 24.1715 14.8286H26.6401V11.1258C26.6401 10.471 26.38 9.84316 25.9171 9.38021C25.4541 8.91726 24.8262 8.65718 24.1715 8.65718H22.9372C20.9731 8.65718 19.0895 9.43743 17.7006 10.8263C16.3118 12.2151 15.5315 14.0988 15.5315 16.0629V19.7658H10.5944V25.9372H15.5315V33.8983C13.6446 33.7965 11.7614 33.6353 9.88468 33.4149Z" stroke="white" stroke-width="2.57143" stroke-linecap="round" stroke-linejoin="round"/>
</svg>
